<svg xmlns="http://www.w3.org/2000/svg" version="1.1" xmlns:xlink="http://www.w3.org/1999/xlink" xmlns:svgjs="http://svgjs.dev/svgjs" width="1000" height="549" viewBox="0 0 1000 549"><g transform="matrix(1,0,0,1,0.1066666666666265,-0.1475318431669166)"><svg viewBox="0 0 375 206" data-background-color="#99b798" preserveAspectRatio="xMidYMid meet" height="549" width="1000" xmlns="http://www.w3.org/2000/svg" xmlns:xlink="http://www.w3.org/1999/xlink"><g id="tight-bounds" transform="matrix(1,0,0,1,-0.03976036071776434,0.055802246093747954)"><svg viewBox="0 0 375.07952880859375 205.8888397216797" height="205.8888397216797" width="375.07952880859375"><g><svg></svg></g><g><svg viewBox="0 0 375.07952880859375 205.8888397216797" height="205.8888397216797" width="375.07952880859375"><g transform="matrix(1,0,0,1,-10.220239639282227,-24.358444213867188)"><path xmlns="http://www.w3.org/2000/svg" d="M10.22 222.842v-198.484h375.08v198.484h-20.341v-4.64h15.701v-189.204h-365.8v189.204h139.373v4.64z" fill="#454545" fill-rule="nonzero" stroke="none" stroke-width="1" stroke-linecap="butt" stroke-linejoin="miter" stroke-miterlimit="10" stroke-dasharray="" stroke-dashoffset="0" font-family="none" font-weight="none" font-size="none" text-anchor="none" style="mix-blend-mode: normal" data-fill-palette-color="tertiary"></path><g><path xmlns="http://www.w3.org/2000/svg" d="M168.151 211.427l3.378-0.371c0.173 0.396 0.322 0.817 0.446 1.262 0.124 0.445 0.21 0.878 0.26 1.3v0c0.668-0.643 1.485-1.262 2.45-1.856 0.965-0.594 1.943-0.891 2.932-0.891v0c1.188 0 2.202 0.24 3.044 0.72 0.841 0.485 1.522 1.272 2.041 2.361v0c0.742-0.742 1.621-1.443 2.636-2.101 1.015-0.653 2.054-0.98 3.118-0.98v0c1.361 0 2.457 0.285 3.289 0.853 0.827 0.569 1.425 1.341 1.796 2.317 0.371 0.98 0.557 2.113 0.557 3.4v0 12.324h-3.081v-11.322c0-0.742-0.054-1.485-0.163-2.227-0.114-0.742-0.386-1.361-0.817-1.856-0.436-0.495-1.136-0.742-2.101-0.742v0c-0.866 0-1.72 0.277-2.561 0.831-0.841 0.559-1.547 1.123-2.116 1.693v0 13.623h-3.081v-11.322c0-0.767-0.054-1.517-0.163-2.249-0.114-0.728-0.386-1.339-0.817-1.834-0.436-0.495-1.136-0.742-2.101-0.742v0c-0.544 0-1.101 0.129-1.67 0.386-0.569 0.262-1.114 0.584-1.633 0.965-0.52 0.386-0.977 0.752-1.374 1.098v0 13.698h-3.081v-13.401c0-0.52-0.042-1.076-0.126-1.67-0.089-0.594-0.22-1.175-0.393-1.745-0.173-0.569-0.396-1.076-0.669-1.521zM206.533 210.871v0c1.955 0 3.427 0.532 4.418 1.596 0.99 1.064 1.485 2.561 1.484 4.491v0 9.243c0 0.52 0.099 0.871 0.297 1.054 0.198 0.188 0.433 0.282 0.706 0.282v0c0.223 0 0.458-0.032 0.705-0.096 0.247-0.059 0.483-0.139 0.705-0.238v0l0.668 2.005c-0.396 0.223-0.896 0.428-1.499 0.616-0.609 0.183-1.235 0.275-1.878 0.275v0c-0.643 0-1.225-0.181-1.745-0.542-0.52-0.356-0.841-1.017-0.965-1.982v0c-0.718 0.767-1.559 1.391-2.524 1.87-0.965 0.485-1.98 0.728-3.044 0.728v0c-1.46 0-2.673-0.433-3.638-1.299-0.965-0.866-1.448-2.054-1.448-3.564v0c0-1.411 0.342-2.537 1.025-3.378 0.678-0.841 1.562-1.472 2.65-1.893 1.089-0.421 2.247-0.705 3.475-0.853 1.222-0.148 2.366-0.223 3.43-0.223v0-1.968c0-1.039-0.21-1.918-0.632-2.635-0.421-0.718-1.237-1.076-2.449-1.077v0c-0.94 0-1.844 0.186-2.71 0.557-0.866 0.371-1.732 0.916-2.599 1.634v0l-1.521-2.191c1.015-0.817 2.128-1.423 3.34-1.818 1.213-0.396 2.462-0.594 3.749-0.594zM209.355 222.563v-1.187c-0.668 0-1.423 0.03-2.265 0.089-0.841 0.064-1.658 0.213-2.45 0.445-0.792 0.238-1.44 0.616-1.945 1.136-0.51 0.52-0.765 1.237-0.764 2.153v0c0 0.817 0.28 1.415 0.838 1.797 0.554 0.386 1.252 0.579 2.094 0.579v0c0.891 0 1.67-0.247 2.339-0.743 0.668-0.495 1.195-1.126 1.581-1.893 0.381-0.767 0.572-1.559 0.572-2.376zM218.003 201.479h3.564v17.447l6.904-7.61h3.304l-7.09 7.758 8.092 10.691h-3.675l-7.535-10.023v10.023h-3.081v-26.096zM241.797 210.871v0c1.485 0 2.735 0.302 3.749 0.905 1.015 0.609 1.777 1.45 2.287 2.525 0.505 1.079 0.757 2.336 0.757 3.771v0c0 0.346-0.017 0.698-0.052 1.054-0.04 0.361-0.084 0.74-0.133 1.136v0h-11.73c0 2.351 0.52 4.17 1.559 5.457 1.039 1.287 2.425 1.93 4.157 1.93v0c0.718 0 1.467-0.111 2.25-0.334 0.777-0.223 1.586-0.557 2.427-1.002v0l1.151 1.856c-0.866 0.693-1.844 1.213-2.932 1.559-1.089 0.346-2.19 0.52-3.304 0.519v0c-1.93 0-3.531-0.458-4.803-1.373-1.277-0.916-2.225-2.103-2.844-3.564-0.619-1.46-0.928-2.982-0.928-4.565v0c0-1.237 0.173-2.438 0.52-3.601 0.346-1.163 0.874-2.222 1.581-3.178 0.703-0.95 1.574-1.705 2.613-2.264 1.039-0.554 2.264-0.831 3.675-0.831zM241.5 213.209v0c-0.841 0-1.584 0.235-2.227 0.706-0.643 0.47-1.163 1.069-1.559 1.796-0.396 0.733-0.668 1.482-0.817 2.25v0h8.464c0.025-1.039-0.116-1.913-0.423-2.621-0.312-0.703-0.757-1.235-1.337-1.596-0.584-0.356-1.284-0.535-2.101-0.535zM260.431 211.427l3.378-0.371c0.173 0.396 0.322 0.817 0.446 1.262 0.124 0.445 0.21 0.878 0.26 1.3v0c0.668-0.643 1.485-1.262 2.45-1.856 0.965-0.594 1.943-0.891 2.932-0.891v0c1.188 0 2.202 0.24 3.044 0.72 0.841 0.485 1.522 1.272 2.041 2.361v0c0.742-0.742 1.621-1.443 2.636-2.101 1.015-0.653 2.054-0.98 3.118-0.98v0c1.361 0 2.457 0.285 3.289 0.853 0.827 0.569 1.425 1.341 1.796 2.317 0.371 0.98 0.557 2.113 0.557 3.4v0 12.324h-3.081v-11.322c0-0.742-0.054-1.485-0.163-2.227-0.114-0.742-0.386-1.361-0.817-1.856-0.436-0.495-1.136-0.742-2.101-0.742v0c-0.866 0-1.72 0.277-2.561 0.831-0.841 0.559-1.547 1.123-2.116 1.693v0 13.623h-3.081v-11.322c0-0.767-0.054-1.517-0.163-2.249-0.114-0.728-0.386-1.339-0.817-1.834-0.436-0.495-1.136-0.742-2.101-0.742v0c-0.544 0-1.101 0.129-1.67 0.386-0.569 0.262-1.114 0.584-1.633 0.965-0.52 0.386-0.977 0.752-1.374 1.098v0 13.698h-3.081v-13.401c0-0.52-0.042-1.076-0.126-1.67-0.089-0.594-0.22-1.175-0.393-1.745-0.173-0.569-0.396-1.076-0.669-1.521zM291.909 211.316h3.564v11.359c0 0.718 0.062 1.453 0.185 2.205 0.124 0.757 0.403 1.383 0.839 1.878 0.431 0.495 1.116 0.742 2.057 0.742v0c0.916 0 1.752-0.198 2.509-0.594 0.752-0.396 1.364-0.948 1.834-1.655 0.47-0.703 0.705-1.524 0.705-2.465v0-9.28c0-0.025-0.037-0.205-0.112-0.542-0.074-0.332-0.148-0.678-0.222-1.039-0.074-0.356-0.124-0.559-0.149-0.609v0h3.564v14.848c0 0.47 0.079 0.817 0.237 1.039 0.163 0.223 0.418 0.334 0.765 0.334v0c0.346 0 0.817-0.111 1.411-0.334v0l0.668 2.005c-0.495 0.272-1.044 0.49-1.648 0.653-0.609 0.158-1.185 0.238-1.73 0.238v0c-0.643 0-1.213-0.186-1.708-0.557-0.495-0.371-0.817-1.027-0.965-1.967v0c-0.718 0.742-1.576 1.373-2.576 1.893-1.005 0.52-2.039 0.78-3.103 0.779v0c-1.361 0-2.455-0.285-3.282-0.854-0.831-0.569-1.433-1.344-1.804-2.323-0.371-0.975-0.557-2.106-0.556-3.393v0-10.171zM319.007 210.871v0c0.841 0 1.675 0.104 2.501 0.311 0.831 0.213 1.594 0.542 2.287 0.988v0l-1.076 2.376c-0.544-0.445-1.151-0.78-1.819-1.003-0.668-0.223-1.324-0.334-1.968-0.334v0c-0.916 0-1.712 0.21-2.39 0.631-0.683 0.421-1.025 1.052-1.025 1.893v0c0 0.916 0.304 1.596 0.913 2.042 0.604 0.445 1.326 0.866 2.168 1.262v0c0.619 0.297 1.245 0.599 1.879 0.906 0.629 0.312 1.21 0.683 1.744 1.113 0.53 0.436 0.963 0.955 1.299 1.559 0.332 0.609 0.497 1.359 0.498 2.25v0c0 1.237-0.302 2.257-0.906 3.059-0.609 0.807-1.401 1.396-2.376 1.766-0.98 0.371-2.039 0.557-3.177 0.557v0c-0.99 0-1.98-0.136-2.97-0.408-0.99-0.272-1.905-0.656-2.747-1.151v0l1.3-2.264c0.594 0.445 1.262 0.804 2.004 1.076 0.742 0.272 1.46 0.408 2.153 0.409v0c0.94 0 1.764-0.223 2.472-0.668 0.703-0.445 1.054-1.114 1.054-2.005v0c0-0.619-0.191-1.133-0.571-1.544-0.386-0.406-0.876-0.77-1.47-1.091-0.594-0.322-1.213-0.631-1.856-0.928v0c-0.742-0.371-1.465-0.775-2.168-1.211-0.708-0.431-1.284-0.98-1.73-1.648-0.445-0.668-0.668-1.522-0.668-2.561v0c0-1.188 0.317-2.178 0.95-2.97 0.629-0.792 1.45-1.393 2.465-1.804 1.015-0.406 2.091-0.609 3.23-0.608zM332.778 205.117v0c0 0.619-0.215 1.151-0.646 1.596-0.436 0.445-0.975 0.668-1.618 0.668v0c-0.619 0-1.146-0.223-1.582-0.668-0.431-0.445-0.646-0.977-0.645-1.596v0c0-0.619 0.215-1.151 0.645-1.596 0.436-0.445 0.963-0.668 1.582-0.668v0c0.619 0 1.151 0.223 1.596 0.668 0.445 0.445 0.668 0.977 0.668 1.596zM328.583 211.316h3.527v18.449h-3.081v-16.259zM345.399 210.871v0c0.94 0 1.888 0.153 2.843 0.46 0.95 0.312 1.883 0.789 2.799 1.433v0l-1.67 2.153c-0.693-0.569-1.373-0.985-2.042-1.247-0.668-0.257-1.312-0.386-1.93-0.387v0c-0.742 0-1.428 0.173-2.057 0.52-0.634 0.346-1.19 0.834-1.67 1.463-0.485 0.634-0.856 1.396-1.114 2.286-0.262 0.891-0.393 1.881-0.393 2.97v0c0 2.326 0.527 4.108 1.581 5.345 1.049 1.237 2.378 1.856 3.987 1.856v0c0.718 0 1.418-0.111 2.101-0.334 0.678-0.223 1.388-0.544 2.131-0.965v0l1.002 1.967c-0.99 0.619-1.943 1.084-2.858 1.396-0.916 0.307-1.943 0.46-3.081 0.46v0c-1.584 0-2.987-0.403-4.21-1.21-1.227-0.802-2.193-1.945-2.895-3.43-0.708-1.485-1.062-3.229-1.062-5.234v0c0-1.93 0.391-3.608 1.173-5.033 0.777-1.42 1.816-2.522 3.118-3.304 1.297-0.777 2.712-1.166 4.247-1.165z" fill="#454545" fill-rule="nonzero" stroke="none" stroke-width="1" stroke-linecap="butt" stroke-linejoin="miter" stroke-miterlimit="10" stroke-dasharray="" stroke-dashoffset="0" font-family="none" font-weight="none" font-size="none" text-anchor="none" style="mix-blend-mode: normal" data-fill-palette-color="secondary"></path></g></g><g transform="matrix(1,0,0,1,29.331764404296877,67.39534007010514)"><svg viewBox="0 0 316.416 71.09815958146943" height="71.09815958146943" width="316.416"><g><svg viewBox="0 0 429.4562015773119 96.49810867021714" height="71.09815958146943" width="316.416"><g transform="matrix(1,0,0,1,0,13.336569287996731)"><svg viewBox="0 0 316.416 69.82497009422367" height="69.82497009422367" width="316.416"><g id="textblocktransform"><svg viewBox="0 0 316.416 69.82497009422367" height="69.82497009422367" width="316.416" id="textblock"><g><svg viewBox="0 0 316.416 69.82497009422367" height="69.82497009422367" width="316.416"><g transform="matrix(1,0,0,1,0,0)"><svg width="316.416" viewBox="0.28166669607162476 -36.11000061035156 167.60833740234375 36.9900016784668" height="69.82497009422367" data-palette-color="#454545"><path d="M1.2 0.37Q0.73 0.32 0.49-0.05 0.24-0.42 0.29-0.85L0.29-0.85Q0.42-1.61 0.76-2.25 1.1-2.88 1.26-3.2 1.42-3.52 1.59-3.91L1.59-3.91 2.51-6.05 12.55-36.11 23.34-15.26 33.81-36.11 46.34 0 33.23 0 27.17-18.65 17.8 0.88 7.93-16.7 4.52-6.03Q3.71-4.25 3.37-3 3.03-1.76 2.81-1.07L2.81-1.07Q2.32 0.46 1.2 0.37L1.2 0.37ZM81.71-33.52L81.71-33.52 81.56-30.49 81.56-15.89Q81.56-8.67 77.41-4.15L77.41-4.15Q73.17 0.46 66.14 0.46L66.14 0.46Q58.62 0.46 54.42-4.25L54.42-4.25Q50.51-8.57 50.51-15.33L50.51-15.33 50.51-34.55 62.99-34.55 62.99-1.61Q64.87-1.34 67.12-1.34 69.38-1.34 71.71-2.25 74.05-3.15 75.8-5.08L75.8-5.08Q79.61-9.23 79.66-17.21L79.66-17.21 79.66-30.44Q79.66-31.18 79.55-32.18 79.44-33.18 79.44-33.54L79.44-33.54Q79.44-34.81 80.64-34.81L80.64-34.81Q81.71-34.81 81.71-33.52ZM89.59-1.76L89.59-1.76Q88.74-2.25 88.12-2.78 87.5-3.32 87.5-3.93L87.5-3.93Q87.5-5.1 88.5-5.1L88.5-5.1Q89.16-5.1 89.96-4.37 90.77-3.64 91.77-3.09 92.77-2.54 93.94-2.15L93.94-2.15Q96.36-1.34 98.41-1.34 100.46-1.34 101.57-1.61 102.68-1.88 103.44-2.34L103.44-2.34Q105.05-3.34 105.05-4.91L105.05-4.91Q105.05-6.35 103.66-7.81L103.66-7.81Q102.49-9.06 100.34-10.79L100.34-10.79 96.16-14.06Q89.89-18.9 88.76-22.9L88.76-22.9Q88.37-24.29 88.37-26 88.37-27.71 89.14-29.37 89.91-31.03 91.43-32.28L91.43-32.28Q94.67-34.99 100.26-34.99L100.26-34.99Q103.12-34.99 105.39-34.14 107.66-33.3 108.49-32.64 109.32-31.98 109.32-31.45L109.32-31.45Q109.32-30.32 108.39-30.32L108.39-30.32Q107.86-30.32 107.25-30.86 106.64-31.4 105.89-31.8 105.15-32.2 104.19-32.52L104.19-32.52Q102.14-33.2 100.17-33.2L100.17-33.2Q96.53-33.2 96.53-30.81L96.53-30.81Q96.53-29.81 97.19-28.96L97.19-28.96Q98.36-27.47 101.77-24.69 105.17-21.92 107.23-19.85 109.3-17.77 110.37-16.11L110.37-16.11Q112.08-13.5 112.08-10.68 112.08-7.86 111.09-5.9 110.1-3.93 108.32-2.51L108.32-2.51Q104.56 0.46 98.99 0.46 93.43 0.46 89.59-1.76ZM118.23 0L118.23-34.55 130.68-34.55 130.68 0 118.23 0ZM166.88-5.79L166.88-5.79Q167.89-5.79 167.89-4.66L167.89-4.66Q167.89-3.74 166.47-2.81L166.47-2.81Q163.83-1.07 162.03-0.54L162.03-0.54Q158.63 0.46 154.9 0.46 151.16 0.46 147.71-0.87 144.25-2.2 141.81-4.59L141.81-4.59Q136.71-9.62 136.71-17.58L136.71-17.58Q136.71-21.41 138.15-24.62 139.59-27.83 142.13-30.13L142.13-30.13Q147.5-34.99 155.63-34.99L155.63-34.99Q160.2-34.99 163.66-33.42L163.66-33.42Q167.35-31.79 167.35-30.64L167.35-30.64Q167.35-30.18 167.04-29.83 166.74-29.49 166.35-29.49L166.35-29.49Q165.57-29.49 164.93-30.19 164.3-30.88 163.21-31.45 162.12-32.01 160.83-32.42L160.83-32.42Q158.19-33.23 156.03-33.23 153.87-33.23 152.46-32.93L152.46-32.93 152.46-1.64Q154.16-1.34 155.48-1.34 156.8-1.34 158.17-1.51 159.54-1.68 160.85-2.08L160.85-2.08Q163.81-2.95 165.3-4.66L165.3-4.66Q165.83-5.3 166.15-5.54 166.47-5.79 166.88-5.79Z" opacity="1" transform="matrix(1,0,0,1,0,0)" fill="#454545" class="wordmark-text-0" data-fill-palette-color="primary" id="text-0"></path></svg></g></svg></g></svg></g></svg></g><g transform="matrix(1,0,0,1,332.89999963996394,0)"><svg viewBox="0 0 96.55620193734795 96.49810867021714" height="96.49810867021714" width="96.55620193734795"><g><svg xmlns="http://www.w3.org/2000/svg" xmlns:xlink="http://www.w3.org/1999/xlink" version="1.1" x="0" y="0" viewBox="0.9461698532104492 2 96.05657196044922 95.998779296875" enable-background="new 0 0 100 100" xml:space="preserve" height="96.49810867021714" width="96.55620193734795" class="icon-icon-0" data-fill-palette-color="accent" id="icon-0"><g fill="#454545" data-fill-palette-color="accent"><path fill="#454545" d="M93.732 14.804L28.318 2c-0.006 0-0.013 0-0.019 0h-1.634C24.862 2 23 3.445 23 5.224V6.86c0 0 0 0.004 0 0.007l0.203 46.41c-2.894 0.085-5.822 0.663-8.815 1.929C4.269 59.487-1.33 69.224 1.826 76.952c3.153 7.728 13.94 10.521 24.062 6.24 8.887-3.76 13.953-11.728 13.009-18.847C39.168 63.874 39 63.355 39 62.769V21.345l42 9.6V66.08c-3 0.125-5.866 0.713-8.732 1.926-10.118 4.28-15.859 14.018-12.703 21.745 3.152 7.729 13.871 10.522 23.989 6.241 9.112-3.856 14.558-12.131 13.258-19.384C96.924 76.28 97 75.937 97 75.567v-55.9c0-0.004 0-0.004 0-0.004v-1.641C97 16.245 95.537 14.804 93.732 14.804z" data-fill-palette-color="accent"></path></g></svg></g></svg></g></svg></g></svg></g></svg></g><defs></defs></svg><rect width="375.07952880859375" height="205.8888397216797" fill="none" stroke="none" visibility="hidden"></rect></g></svg></g></svg>